/* XPM */
static char * north_texture_xpm[] = {
"64 64 54 1",
" 	c #A48860",
".	c #8D7053",
"+	c #7A654C",
"@	c #553A38",
"#	c #432D33",
"$	c #29172D",
"%	c #28172D",
"&	c #6A5343",
"*	c #846A4F",
"=	c #997D59",
"-	c #917856",
";	c #5C4A3E",
">	c #997D5A",
",	c #7A644B",
"'	c #8D6F53",
")	c #492938",
"!	c #6D5047",
"~	c #7F614B",
"{	c #8D7052",
"]	c #80614B",
"^	c #997C5A",
"/	c #704E42",
"(	c #361E31",
"_	c #512D3B",
":	c #62403F",
"<	c #402435",
"[	c #6A4740",
"}	c #694740",
"|	c #62403E",
"1	c #5A373D",
"2	c #7A654B",
"3	c #917857",
"4	c #755A47",
"5	c #80614A",
"6	c #5C4A3F",
"7	c #5A383D",
"8	c #7A5C4A",
"9	c #836750",
"0	c #6A4840",
"a	c #412434",
"b	c #694741",
"c	c #83674F",
"d	c #745648",
"e	c #5A383C",
"f	c #6A4741",
"g	c #694840",
"h	c #624040",
"i	c #694841",
"j	c #402434",
"k	c #957A59",
"l	c #684F44",
"m	c #6E5147",
"n	c #886C51",
"o	c #351E31",
"           .++@#$%$$%@&*=     -;$$+                             ",
">>.>. =. .>>    >.,*  > '.>>>> -$)! >.~>. {{..~{... >]..'.>.>^>>",
"/////]/]...=>/='{>   .//.////.  (_:]]///.]////]//////////././]./",
"///////////]/.]]].].//////////> <_//////////////////////////////",
"//////////////////////////////. <_//////////////////////////////",
"//////////////////////////////~ <_//////////////////////////////",
"//////////////////////////////] <_//////////////////////////////",
"//////////////////////////////. <_//////////////////////////////",
"/////////////////////////////.. <_//////////////////////////////",
"//////////////////////////////= <_//////////////////////////////",
"//////////////////////////////. <_//////////////////////////////",
"/////////////////////////////.. <_//////////////////////////////",
"//////////////////////////////> <_[/////////////////////:}////:_",
"||:11:1//}://////////////////}!2(__1::::||111:1:::111:||/1:|::::",
"_______________________)______)$$)___________))________________)",
"<<<<<<<<<<<<<<<<<<<<<<<((<<<<($$$$(<<<<<<<<<<<(<<<<<<<<<<<<<<<$(",
"$$+                           3$$$+        43-++           ;$$$$",
"$)!.////~ .>>.]/.{.]./]....]/]     ~///////:].  .///////~]>-$$$$",
"(_:////////////////////////////].]////////://////////////./>3$$$",
"<_:///////////////////////////////////////:///////////////5]>36$",
"<_7//////////////////////////////////////.:////////////////./. -",
"<_1//////////////////////////////////////890/////////////////]. ",
"a_1/////////////////////////////////////b0/c//////////////////] ",
"(<:////////////////////////////////////.://]d////////////////// ",
"(_:b////////////////////////////////////////]b///////////////// ",
"<_1//////////////////////////////////////////////////////////// ",
"<_1://///////////////////////////////////////////////////////// ",
"<_ef/////////////////////////////////////////////////////////// ",
"<_1g}////////////b}1///}|://///b//////////}///////////////g///] ",
"(__:1/}:1gh:::1::_}:101::g11__:1:_11i:}1::::71:::::}1110:11::i!2",
"$)______________________________))___________))_______________)$",
"$$(<<<<<<<<<<<<<<<<<<<<<<<<<<<<<$a<<<<<<<<<<<<$<<<<<<<<<<<<<<($$",
"                              +$$(-               > >.>         ",
"///////////////////////////..> +$_d.//////////////.]. .]////////",
"//////////////////////////////>-<_1/////////////////////////////",
"//////////////////////////////. <_://///////////////////////////",
"/////////////////////////////// (_7:////////////////////////////",
"/////////////////////////////// $<10////////////////////////////",
"//////////////////////////////] $)7:////////////////////////////",
"//////////////////////////////. $__/////////////////////////////",
"//////////////////////////////~ $_7:////////////////////////////",
"//////////////////////////////] $_7:////////////////////////////",
"/////////////////////////////// <__1////////////////////////////",
"/////////////////////////////// <__}/////////////////}//////////",
"}///////////::g_1|:////////b}}. j__1|1:/1g}}|17|g:/}0__:/b////g/",
"11:11/}::_1_77___b7:|}:g//1|11k-%___7_7_|1_1__________7_11__::1:",
")_____________________________l$$(_____________<<<<<___________)",
"$<<<<<<<<<<<($$$<<<<<<<<<<<<<($$$$$(<<<<($$$$$$$$$$$$$$$(<<<<<<<",
"$$+                            ++-                            -;",
"$)mn=.=']^=...{{...{{/]=>'=..>.>>>>{>> .{....>{{{]~'^ >>. {{.= -",
"(__0///]]]////////]]].]//////.>>>>]]]/////////]]/.]//////////=. ",
"<_://///////////////////////////////////////////////////////].> ",
"<_7g/////////////////////////////////////////////////////////]~ ",
"<_1}//////////////////////////////////////////////////////////  ",
"<_1///////////////////////////////////////////////////////////. ",
"<_://////////////////////////////////////////////////////////.  ",
"a_7///////////////////////////////////////////////////////////= ",
"(o_///////////////////////////////////////////////////////////^ ",
"%_://////////////////////////////////////////////////////////]. ",
"<_:0//////////////////////////////////////////////////////////~ ",
"<_0:///////////:||_7///////////////////////////b//////////////. ",
"(__0:::1:::/}1_______0//1:1:1::/i/}::_1:/}11}:11/1/}::}}}:_1_g +",
"$)______________<)______________________________________)<____)$",
"$$(<<<<<<<<<<<($$$$(<<<<<<<<<<<<<<<<($%<<<<<<<<<<<<<<<<<(a<<<($$"};
