/* XPM */
static char * south_texture_xpm[] = {
"64 64 58 1",
" 	c #26132B",
".	c #A48961",
"+	c #A48860",
"@	c #A48960",
"#	c #26132C",
"$	c #29172D",
"%	c #6F4E41",
"&	c #6F4E42",
"*	c #A58961",
"=	c #28152D",
"-	c #704E42",
";	c #704E41",
">	c #28162D",
",	c #29162D",
"'	c #714E42",
")	c #704F42",
"!	c #704F43",
"~	c #512C3A",
"{	c #512C3B",
"]	c #502C3A",
"^	c #27381E",
"/	c #502C3B",
"(	c #714F42",
"_	c #27152D",
":	c #27152C",
"<	c #26371E",
"[	c #26381D",
"}	c #27142D",
"|	c #26152D",
"1	c #26371D",
"2	c #A58960",
"3	c #25361C",
"4	c #29172E",
"5	c #28381E",
"6	c #A58962",
"7	c #25371D",
"8	c #27142C",
"9	c #26351C",
"0	c #28172E",
"a	c #A58A61",
"b	c #27371D",
"c	c #29172C",
"d	c #512D3C",
"e	c #512D3B",
"f	c #502D3B",
"g	c #704E43",
"h	c #27371E",
"i	c #714E43",
"j	c #283820",
"k	c #502D39",
"l	c #28371E",
"m	c #27381D",
"n	c #28152C",
"o	c #714F43",
"p	c #28371D",
"q	c #28172D",
"r	c #25361D",
"s	c #29381E",
" .+++++++++++@#$ .+++++++++++@#$ .+++++++++++@#$ .+++++++++++@#$",
".%&&&&&&&&&&&%*#*%&&&&&&&&&&&%*#*%&&&&&&&&&&&%*#*%&&&&&&&&&&&%*=",
"--------------;>--------------;>--------------;>--------------;,",
"--------------->--------------->--------------->---------------,",
"--------------->--------------->--------------->---------------,",
"------'-------)>)-------------)>)-----'-------)>)-------------),",
">!~{]^!~]))]-),$>!~/-(~--~])]!,$>!~{]^!~]))]-),$>!~/-(~--~])]!,$",
"_:__<[,$$}}_}:___:__|1>,,_:}_:___:__<[,$$}}_}:___:__|1>,,_:}_:__",
"+++++234 *+++++++++++235 *+++++++++++234 *+++++++++++235 *++++++",
"&&&&&%6#*%&&&&&&&&&&&%*7*%&&&&&&&&&&&%6#*%&&&&&&&&&&&%*7*%&&&&&&",
"------;>--------------->--------------;>--------------->--------",
"------->--------------->--------------->--------------->--------",
"------->--------------->--------------->--------------->--------",
"------)>)-------------)>))------------)>)-------------)>))------",
"{]!~]!,$>!~/--~)/]!]-),$,/!]--~{{]!~]!,$>!~/--~)/]!]-),$,/!]-({{",
"$_8__:___:__}8$,$_8_}:____8_}}$^$$,$$,$$$$$$,,$,$_8_}:____8_|1,$",
" *+++++++++++2#$ *+++++++++++290$$$$$$$$$$$$$$$$ *+++++++++++234",
".%&&&&&&&&&&&%*#*%&&&&&&&&&&&%abcdeeeeeeeeeeef$_*%&&&&&&&&&&&%6=",
"--------------;>--------------->eeeeeeeeeeeeeed>--------------;,",
"--------------->--------------->eeeeeeeeeeeeeee>---------------,",
"--------------->--------------->eeeeeeeeeeeeeee>---------------,",
"-'-g----------)>)-----g-------),eeeeeeeeeeeeeee>)-----g-------),",
">!h^~i)~]))]-),$>!~/--~^){])]!,$cej5$deccdecef$$>!~/){kl-~])]!,$",
"_:_11_,$$}}_}:___:__}8$5m=:}_:___=:11=$$$==__n___:___:l0,_:}_:__",
"+++++2#$ *+++++++++++2#$ *+++++++++++2#$ *+++++++++++234 *++++++",
"&&&&&%*#*%&&&&&&&&&&&%*#*%&&&&&&&&&&&%*#*%&&&&&&&&&&&%6#*%&&&&&&",
"------;>--------------;>--------------;>--------------;>--------",
"------->--------------->--------------->--------------->--------",
"------->--------------->--------------->--------------->--------",
"------)>o-------------)>))----g-------)>o-------------)>)-----g-",
"{~!~]!,$p){/--~)/]!]-),$,/!]--~l{~!~]!,$p){/--~)/]!]-),$>!~{]!~5",
"^=8__:__|b__}8$,$_8_}:____8_}8$q^=8__:__|b__}8$,$_8_}:___:___}$5",
" *+++++++++++2#$ *+++++++++++2#$ *+++++++++++2#$ *+++++++++++2#$",
".%&&&&&&&&&&&%*#*%&&&&&&&&&&&%*#*%&&&&&&&&&&&%*#*%&&&&&&&&&&&%*=",
"--------------;>--------------;>--------------;>--------------;,",
"--------------->--------------->--------------->---------------,",
"--------------->--------------->--------------->---------------,",
"------'-------)>)-------------)>)-----'-------)>)-------------),",
">!~{]^!~]))]-),$>!~/-(~--~])]!,$>!~{]^!~]))]-),$>!~/-(~--~])]!,$",
"_:__<[,$$}}_}:___:__|1>,,_:}_:___:__<[,$$}}_}:___:__|1>,,_:}_:__",
"+++++234 *+++++++++++235 *+++++++++++234 *+++++++++++235 *++++++",
"&&&&&%6#*%&&&&&&&&&&&%*7*%&&&&&&&&&&&%6#*%&&&&&&&&&&&%*7*%&&&&&&",
"------;>--------------->--------------;>--------------->--------",
"------->--------------->--------------->--------------->--------",
"------->--------------->--------------->--------------->--------",
"------)>)-------------)>))------------)>)-------------)>))------",
"{]!~]!,$>!~/--~)/]!]-),$,/!]--~{{]!~]!,$>!~/--~)/]!]-),$,/!]-({{",
"$_8__:___:__}8$,$_8_}:____8_}}$^$_8__:___:__}8$,$_8_}:____8_|1,$",
" *+++++++++++2#$ *+++++++++++290 *+++++++++++2#$ *+++++++++++234",
".%&&&&&&&&&&&%*#*%&&&&&&&&&&&%ar*%&&&&&&&&&&&%*#*%&&&&&&&&&&&%6=",
"--------------;>--------------->--------------;>--------------;,",
"--------------->--------------->--------------->---------------,",
"--------------->--------------->--------------->---------------,",
"-'-g----------)>)-----g-------)>)'-g----------)>)-----g-------),",
">!h^~i)~]))]-),$>!~/--~^){])]!,$>!h^~i~{]))]-),$>!~/){kl-~])]!,$",
"_:_11_,$$}}_}:___:__}8$5m=:}_:___:_11_$$$}}_}:___:___:l0,_:}_:__",
"+++++2#$ *+++++++++++2#$ *+++++++++++2#$ *+++++++++++234 *++++++",
"&&&&&%*#*%&&&&&&&&&&&%*#*%&&&&&&&&&&&%*#*%&&&&&&&&&&&%6#*%&&&&&&",
"------;>--------------;>--------------;>--------------;>--------",
"------->--------------->--------------->--------------->--------",
"------->--------------->--------------->--------------->--------",
"------)>o-------------)>))----g-------)>o-------------)>)-----g-",
"{~!~]!,$p){/--~)/]!]-),$,/!]--~l{~!~]!,$p){/--~)/]!]-),$>!~{]!~5",
"^4,$$,$$qs$$,,$,$$,$,,$$$$,$,,$q^4,$$,$$qs$$,,$,$$,$,,$$$$$$$,$5"};
