/* XPM */
static char * west_texture_xpm[] = {
"64 64 366 2",
"  	c #271815",
". 	c #271914",
"+ 	c #261913",
"@ 	c #271913",
"# 	c #261914",
"$ 	c #251714",
"% 	c #281916",
"& 	c #271A15",
"* 	c #271A14",
"= 	c #251712",
"- 	c #261813",
"; 	c #251913",
"> 	c #271813",
", 	c #BD6F4C",
"' 	c #BE6F4B",
") 	c #BF6F4B",
"! 	c #BD6F4B",
"~ 	c #BF6E4B",
"{ 	c #E69D6F",
"] 	c #381D1D",
"^ 	c #281A15",
"/ 	c #271A13",
"( 	c #5D2B28",
"_ 	c #BE704F",
": 	c #BE704C",
"< 	c #BE704D",
"[ 	c #BF704D",
"} 	c #BF704C",
"| 	c #BF6F4D",
"1 	c #E69C6F",
"2 	c #24160F",
"3 	c #BD7151",
"4 	c #BE6F4D",
"5 	c #8B4833",
"6 	c #8A4834",
"7 	c #894835",
"8 	c #8A4835",
"9 	c #894834",
"0 	c #894934",
"a 	c #8A4937",
"b 	c #BE704A",
"c 	c #E39D70",
"d 	c #381919",
"e 	c #291B15",
"f 	c #5D2C29",
"g 	c #8B4734",
"h 	c #8B4834",
"i 	c #8B4735",
"j 	c #8B4733",
"k 	c #BE714E",
"l 	c #261812",
"m 	c #5B2B26",
"n 	c #884734",
"o 	c #8A4734",
"p 	c #8B4736",
"q 	c #8B4835",
"r 	c #8A4836",
"s 	c #8A4833",
"t 	c #BC6E4C",
"u 	c #E79D70",
"v 	c #25180F",
"w 	c #BE704E",
"x 	c #5D2C28",
"y 	c #894836",
"z 	c #BE704B",
"A 	c #271911",
"B 	c #5C2C2A",
"C 	c #BD704D",
"D 	c #5D2C27",
"E 	c #BF6F4C",
"F 	c #5C2C2B",
"G 	c #894935",
"H 	c #C06F4C",
"I 	c #271812",
"J 	c #5E2C27",
"K 	c #5E2C28",
"L 	c #5E2B27",
"M 	c #BD704C",
"N 	c #5E2B25",
"O 	c #261811",
"P 	c #5E2B24",
"Q 	c #5D2C25",
"R 	c #894937",
"S 	c #5C2D2A",
"T 	c #894936",
"U 	c #8A4936",
"V 	c #5D2B24",
"W 	c #5E2B26",
"X 	c #5E2C26",
"Y 	c #884A3A",
"Z 	c #8A4935",
"` 	c #8B4939",
" .	c #894837",
"..	c #261814",
"+.	c #3C1D23",
"@.	c #5D2B25",
"#.	c #5C2B26",
"$.	c #5C2A24",
"%.	c #8A4938",
"&.	c #602B23",
"*.	c #5E2A24",
"=.	c #8A4837",
"-.	c #5C2E2B",
";.	c #3C1E21",
">.	c #3B1E20",
",.	c #5C2C27",
"'.	c #5F2A24",
").	c #894735",
"!.	c #3D1E20",
"~.	c #874937",
"{.	c #8A4A35",
"].	c #602B26",
"^.	c #602C27",
"/.	c #884A37",
"(.	c #3C1F20",
"_.	c #3A1F21",
":.	c #271A17",
"<.	c #3B1F20",
"[.	c #5C2C29",
"}.	c #884836",
"|.	c #5B2D2A",
"1.	c #BD704E",
"2.	c #5F2C26",
"3.	c #894A38",
"4.	c #5D2B27",
"5.	c #5E2B28",
"6.	c #3B1F21",
"7.	c #3B2022",
"8.	c #281915",
"9.	c #884939",
"0.	c #894938",
"a.	c #5F2B29",
"b.	c #3B1E1D",
"c.	c #5B2C2A",
"d.	c #8B4935",
"e.	c #5C2B29",
"f.	c #5D2B26",
"g.	c #5D2A22",
"h.	c #3C1F21",
"i.	c #3B1F22",
"j.	c #8C4835",
"k.	c #5D2C2A",
"l.	c #3B1D1D",
"m.	c #281A16",
"n.	c #3D2020",
"o.	c #3B1F23",
"p.	c #3A2021",
"q.	c #271A16",
"r.	c #261A15",
"s.	c #3B2021",
"t.	c #271915",
"u.	c #391F1E",
"v.	c #5B2C29",
"w.	c #5C2C28",
"x.	c #5B2C28",
"y.	c #3B2020",
"z.	c #3C201F",
"A.	c #281B15",
"B.	c #271916",
"C.	c #382020",
"D.	c #3C1D20",
"E.	c #3B1E21",
"F.	c #271814",
"G.	c #251813",
"H.	c #261713",
"I.	c #BC704E",
"J.	c #BD6E4A",
"K.	c #BC6F4B",
"L.	c #5D2C2C",
"M.	c #3C1F22",
"N.	c #BD6F4E",
"O.	c #BC704C",
"P.	c #884834",
"Q.	c #BC704D",
"R.	c #E59C6E",
"S.	c #381C1D",
"T.	c #261915",
"U.	c #BC6F4E",
"V.	c #BD6E4B",
"W.	c #BE6F4C",
"X.	c #3A2022",
"Y.	c #281914",
"Z.	c #8A4A3A",
"`.	c #5E2D29",
" +	c #5E2D2A",
".+	c #5E2D28",
"++	c #8A4A37",
"@+	c #8A4933",
"#+	c #8B4934",
"$+	c #8B4936",
"%+	c #5F2B26",
"&+	c #BE6E4A",
"*+	c #381B1C",
"=+	c #391D1F",
"-+	c #5C2D29",
";+	c #3A2020",
">+	c #8B4938",
",+	c #5D2D27",
"'+	c #5F2D27",
")+	c #8B4937",
"!+	c #894736",
"~+	c #E69C6D",
"{+	c #261711",
"]+	c #884838",
"^+	c #874A36",
"/+	c #5F2C24",
"(+	c #884737",
"_+	c #8A4934",
":+	c #894733",
"<+	c #BD6F4A",
"[+	c #3B1E22",
"}+	c #884936",
"|+	c #8A4A38",
"1+	c #5F2C27",
"2+	c #5F2A25",
"3+	c #5D2C26",
"4+	c #8B4837",
"5+	c #5F2B27",
"6+	c #884937",
"7+	c #5E2A26",
"8+	c #BD6F4D",
"9+	c #612B26",
"0+	c #5E2C24",
"a+	c #884837",
"b+	c #602B28",
"c+	c #884A36",
"d+	c #612A24",
"e+	c #281A13",
"f+	c #BE6F4E",
"g+	c #281814",
"h+	c #281713",
"i+	c #5F2D26",
"j+	c #884835",
"k+	c #8A4735",
"l+	c #602C28",
"m+	c #3C1E1F",
"n+	c #894838",
"o+	c #884A39",
"p+	c #BE7050",
"q+	c #3D1F22",
"r+	c #5B2C27",
"s+	c #3A201E",
"t+	c #261A16",
"u+	c #5D2B29",
"v+	c #3D201F",
"w+	c #3A1F1E",
"x+	c #5E2C2A",
"y+	c #5E2C29",
"z+	c #5D2D2B",
"A+	c #5D2D28",
"B+	c #5D2D29",
"C+	c #3D1D1D",
"D+	c #281913",
"E+	c #291813",
"F+	c #281911",
"G+	c #271811",
"H+	c #251710",
"I+	c #271711",
"J+	c #251911",
"K+	c #271713",
"L+	c #271710",
"M+	c #291A13",
"N+	c #261810",
"O+	c #271810",
"P+	c #251910",
"Q+	c #BF704E",
"R+	c #BE6F4A",
"S+	c #BE6F4F",
"T+	c #884733",
"U+	c #E59D6F",
"V+	c #391B1D",
"W+	c #C06F4D",
"X+	c #E89D70",
"Y+	c #381A1B",
"Z+	c #281A14",
"`+	c #251B15",
" @	c #261912",
".@	c #8B4836",
"+@	c #884833",
"@@	c #E49D70",
"#@	c #894933",
"$@	c #E69D72",
"%@	c #3A1D1D",
"&@	c #884735",
"*@	c #5F2A23",
"=@	c #251912",
"-@	c #BD6F49",
";@	c #E79C71",
">@	c #381E1E",
",@	c #E69D6C",
"'@	c #391A1C",
")@	c #602A24",
"!@	c #261911",
"~@	c #BD714D",
"{@	c #E39D6F",
"]@	c #5D2A27",
"^@	c #5C2B28",
"/@	c #894A37",
"(@	c #5F2C2A",
"_@	c #602C24",
":@	c #884935",
"<@	c #5C2D28",
"[@	c #602C26",
"}@	c #8A4838",
"|@	c #5F2C28",
"1@	c #5E2E29",
"2@	c #874835",
"3@	c #602A25",
"4@	c #894A39",
"5@	c #8A4A39",
"6@	c #3A1E20",
"7@	c #602B24",
"8@	c #261714",
"9@	c #5E2D26",
"0@	c #8A4839",
"a@	c #3A1E1F",
"b@	c #291916",
"c@	c #291913",
"d@	c #281813",
"e@	c #291A16",
"f@	c #351E1B",
"g@	c #BC704F",
"h@	c #BF7050",
"i@	c #BF714C",
"j@	c #E59B70",
"k@	c #371C1A",
"l@	c #361E1C",
"m@	c #3A1E21",
"n@	c #291915",
"o@	c #381F1E",
"p@	c #BE6E4C",
"q@	c #E59D70",
"r@	c #251713",
"s@	c #3B1F1E",
"t@	c #3B2122",
"u@	c #8B4838",
"v@	c #BD704A",
"w@	c #5D2D2A",
"x@	c #8A4932",
"y@	c #5E2C25",
"z@	c #3A1E1E",
"A@	c #602C25",
"B@	c #BC714F",
"C@	c #602A27",
"D@	c #5D2D26",
"E@	c #5F2C25",
"F@	c #5D2E29",
"G@	c #5F2B25",
"H@	c #884938",
"I@	c #874838",
"J@	c #3D1E23",
"K@	c #5D2A28",
"L@	c #894738",
"M@	c #884736",
"N@	c #874A38",
"O@	c #BD704B",
"P@	c #251915",
"Q@	c #3C1E22",
"R@	c #8B4A37",
"S@	c #612A25",
"T@	c #874935",
"U@	c #261A14",
"V@	c #5C2E29",
"W@	c #5C2E28",
"X@	c #3B1F1F",
"Y@	c #281B16",
"  . + + + + @ + + + + @ + + + + @ + + # $ % & & * + + + + + + + + + + + + + + + + + + + + + + + + + = & - - ; - - - - - - - - > ",
", ' ) ' ! ' ~ ' ' ! ' ~ ' ' ' ' ~ ' ' ' { ] ^ / ( _ : < : : [ < : < < } < < } < [ : : | : : < < } < 1 2 3 4 : : : : : : : : : : ",
"5 6 7 8 9 8 0 7 8 7 8 7 8 7 7 8 7 8 7 a b c d e f g h 8 6 h i 6 6 g g h 6 6 h h i 6 6 i h h 8 6 h j k l m n o i i p q i h q i h ",
"8 8 8 8 8 8 8 8 8 8 8 8 8 8 8 8 8 8 8 r s t u v f q 8 8 8 8 8 8 8 8 8 8 8 8 8 8 8 8 8 8 8 8 8 8 8 8 w l x y 8 8 8 8 8 8 8 8 8 8 ",
"8 6 8 8 8 8 8 8 8 8 8 8 8 8 8 8 8 8 8 8 8 q z A B 7 8 8 8 8 8 8 8 8 8 8 8 8 8 8 8 8 8 8 8 8 8 8 8 6 C - D 8 8 8 8 8 8 8 8 8 8 8 ",
"8 8 8 8 8 8 8 8 8 8 8 8 8 8 8 8 8 8 8 8 8 7 E A F 7 8 8 8 8 8 8 8 8 7 G 8 G 8 8 8 8 8 8 8 8 8 8 8 6 C - x r 8 8 8 8 8 8 8 8 8 8 ",
"8 8 8 8 8 8 8 8 8 8 8 8 8 8 8 8 8 8 8 8 8 8 H I B 7 8 8 8 8 8 8 8 y r J K L y 8 8 8 8 8 8 8 8 8 8 6 M - x r 8 8 8 8 8 8 8 8 8 8 ",
"8 8 8 8 8 8 8 8 8 8 8 8 y N 8 8 8 8 8 8 8 8 : O F 7 8 8 8 8 8 8 y P Q R y G 8 8 8 8 8 8 8 8 8 8 8 8 C - x r 8 8 8 8 8 8 8 8 8 8 ",
"8 8 8 8 8 8 8 8 8 8 8 8 y N r 7 y 8 8 8 8 q : I S T U a V W L L X Y U 8 8 8 8 8 8 8 8 8 8 8 8 8 8 8 C - x r 8 8 8 8 8 8 8 8 8 8 ",
"8 8 8 8 8 8 G 8 8 8 8 8 Z ` K f J  .8 8 r 6 M ..+.@.#.$.%.r r r R &.R 8 8 8 8 8 8 8 8 8 8 8 8 8 8 6 M - x r 8 8 8 r 8 8 8 8 8 8 ",
"8 8 8 8 8 G *.a r 8 8 =.K -.;.>.>.,.r y '.).: > !.~.8 T {.8 8 8 8 R ].y 8 8 8 8 8 8 8 8 8 8 8 8 8 6 C - x r 8 8 r ^.8 8 8 8 8 8 ",
"8 8 8 8 8 8 r N W /.T L (._.:.& <.[.r N  .}.C I |.U 8 8 8 8 8 8 8 8 J y 8 8 8 8 8 8 8 8 8 8 8 8 8 8 1.- x T r 8 y 2.8 8 8 8 8 8 ",
"8 8 8 8 8 8 8 r 3.4.5.6.7.& & & 8.;.x 9.0.a.b.. c.d.8 8 8 8 8 8 8 8 8 8 8 8 8 8 8 8 8 8 8 8 8 8 U U 1.- ;.e.f. .g.R 7 8 8 8 8 8 ",
"8 8 8 8 8 8 8 r x h.6.i._.^ & & & ^ (.B B h.8./ B j.8 8 8 8 8 8 8 8 8 8 8 8 8 8 8 8 8 8 8 8 8 =.Q k.l.. m._.<.,./.G 8 8 8 8 8 8 ",
"x x x x x x x f n.o.o.i.i.p.q.& & r.& <.s.t.q.8.u.v.w.w.,.w.w.,.w.w.,.w.,.w.w.,.w.w.,.w.,.w.w.x.y.p.& & & 8.& z.f f f [.[.[.[.[.",
"A.^ B.B.B.B.C.D.E.>.E.E.6.<._.& & t./ F.F.F.+ . G.I F.F.F.F.F.F.F.F.H.8.^ ^ m.F.F.F.F.F.F.F.F.> F.F.> > > > + > > > > > > > > > ",
"& m.q.q.m.& % I.J.K.U R f.L.6.i.M.i.e.N.O., M P.1.z 4 4 4 4 4 4 4 Q.R.S.m.& T.U.J.V.W.W.W.W.W.W.W.E W.W.W.W.W.W.W.W.W.W.W.W.W.W.",
"(.6.i.i.X.8.Y.f.8 9 4 H Z.`.y.6. +.+++@+#+@+$+%+7 g g 6 g g o g g o &+{ *+=+/ W 8 7 8 8 7 8 8 7 8 7 8 8 8 8 8 8 8 8 8 8 8 8 8 8 ",
"k.f f -+;.;+8.w.8 8 i >+,+'+a.5.>+)+)+8 8 8 f.!+8 8 8 7 8 8 8 8 8 8 7 z ~+{ {+w.7 G 8 8 8 8 8 8 8 8 8 8 8 8 8 8 8 8 8 8 8 8 8 8 ",
"x x x x -+6.t.[.8 8 8 8 ]+^.^+y /+r 8 8 8 r 4.(+_+8 8 8 8 8 8 8 8 8 8 :+<+<+I w.7 G 8 8 8 8 8 8 8 8 8 8 8 8 8 8 8 8 8 8 8 8 8 8 ",
"x x x x w.[+/ w.8 8 8 8 /+}+q G G 8 8 8 r 2.|+$+8 8 8 8 8 8 8 8 8 8 8 8 s < > [.7 G 8  . .6 8 8 8 8 8 8 8 8 8 8 8 8 8 8 8 8 8 8 ",
"x x x x w.6.* w.8 8 8 8 T ++r 8 8 8 8 8 T 1+|+)+8 8 8 8 8 8 8 8 8 8 8 8 6 C > [.8 8 8 2+N G 8 8 8 8 7 7 8 G T 8 8 8 8 8 8 8 8 8 ",
"x x x x w.6.% f 8 8 8 8 8 U r 8 8 8 8 8 f.y W }+8 8 8 8 8 8 8 8 8 8 8 8 6 C > [.8 q 8 G R 3+4+8 8 7 G J 5+6+7+r 8 8 8 8 8 8 8 8 ",
"x x x x w.<.* w.8 8 8 8 8 8 8 8 8 8 8 r X T N }+8 8 8 8 8 8 8 8 8 8 8 8 6 8+I w.7 7 8 8 8 T 5.}.8 T ].R y 9+6+8 8 8 8 8 8 8 8 8 ",
"x x x x w.i.& w.8 8 8 8 8 8 8 8 8 8 r 0+}.8 =.6 8 8 8 8 8 8 8 8 8 8 *.a 6 N.I w.8 8 8 8 8 8 K a+y b+c+8 8 }+d+a+8 8 8 8 8 8 8 8 ",
"x x x x w.[+e+w.8 8 8 8 8 8 8 8 8 8 8 y 8 r r r 8 8 8 8 8 8 8 8 8 7 q 2+8 f+I w.8 8 8 8 8 8 G X }+1+r 8 8 8 6+%+r 8 8 8 8 8 8 8 ",
"x x x x w.i.8.w.8 8 8 8 8 8 8 8 8 8 8 8 8 8 8 8 8 8 8 8 8 8 8 8 8 8 8  .,.}+g+w.8 8 8 8 8 8 7 r J }.r 6 8 8 y r 8 8 8 8 8 8 8 8 ",
"x x x x w.6.& [.8 8 8 8 8 8 8 8 8 8 8 8 8 8 8 8 8 8 8 8 8 8 8 8 8 8 8 8 7 C h+[.7 G 8 8 8 8 8 r x 7 8 8 8 8 8 8 8 8 8 8 8 8 8 8 ",
"x x x x w.i.* x. .8 8 8 8 8 8 8 8 8 8 8 8 8 8 8 8 8 8 8 8 8 8 8 8 8 8 8 6 C h+w.R 7 8 8 8 8 r i+j+k+8 8 8 8 8 8 8 8 8 8 8 8 8 8 ",
"x x x x w.[+& h.D r 8 8 8 8 8 8 8 8 8 8 8 8 8 8 8 8 8 }+T 8 8 8 8 8 8 8 6 C > B 4.r 8 8 8 8 T l+r 8 8 8 8 8 8 8 8 8 8 8 8 8 8 8 ",
"x x x x x h.t.& m+[.,. .R R R =. .R R  .=.R R R =.r n+;.!.o+a U U U U U Z p+l y.q+f Z y r =.r+}.r r r 8 r r r r r r r r r r r =.",
"x x x x J [.s+m.t+_._.[.f f x u+x x f x f f x D u+f v+q.& w+x+[.w.w.e.w.e.w.& & q.;+ +y+f x+6.z+f f A+B+k.y+k.k.y+k.f y+k.f x+k.",
"D D D D D x f C+D+D+E+F+F+@ O G+G+G+G+G+G+H+/ . I+J+; + - K+G+G+G+O O G+O O ; - - K+G+G+G+O > L+M+/ & D+O O G+O N+L+N+N+O+O+P+G+",
"Q+W.R+' R+' ' W.W., W.E S+T+N.| f+f+f+f+8+U+V+g+3 < | W+| | | | | | | | | | | 4 | 4 | | 4 | z X+Y+Z+`+ @3 C C C W.z z W.z z W.z ",
")+.@9 7 7 7 7 7 7 7 7 }.Q +@).8 6 6 6 6 s : @@G+J j+9 #@9 7 #@0 7 #@0 7 0 #@8 0 #@9 9 #@9 7 g : $@%@& Y.#.&@o k+8 8 8 8 8 8 8 7 ",
"q 8 8 8 8 8 8 8 8 8 y *@6+6 8 8 8 8 8 8 r #+E =@f 8 8 8 8 8 8 8 8 8 8 8 8 8 8 8 8 8 8 8 8 8 8 j -@;@>@Z+x r 6 8 8 8 8 8 8 8 8 8 ",
"8 8 8 8 8 8 8 8 U 2.l+ .8 8 8 8 8 8 8 8 8 d.E  @f 8 r 8 8 8 8 8 8 8 8 8 8 8 8 8 8 8 8 8 8 8 8 6 ' ,@'@* x r 8 8 8 8 8 8 8 r T U ",
"8 8 8 8 8 8 8 T )@/.U 8 8 8 8 8 8 8 8 8 8 d.E !@f 7 r 8 8 8 7 7 8 8 8 8 8 8 8 8 8 8 8 8 8 8 8 8 g ~@{@G+x r 8 8 8 8 7 G 8 r L ( ",
"8 8 8 8 8 r ]@^@/@U U 8 8 8 8 8 8 8 8 8 8 d.|  @f G 8 8 8 8 G 1+8 8 8 8 8 8 8 8 8 8 8 8 8 8 8 8 8 5 W.> A+r 8 8 8 y T K x+(@;.M.",
"8 8 8 8 y _@:@8 X 7 8 8 8 8 8 8 8 8 8 8 8 d.E  @f 8 8 8 8 8 T L 8 8 8 8 8 8 8 8 8 8 8 8 8 8 8 8 8 6 W.- <@r 8 8 y N 3+(.h.M.i.i.",
"8 8 r y N 9.8 8 5+ .8 8 8 8 8 8 8 8 8 8 8 d.E  @f 8 8 8 8 8 W a 8 8 8 8 8 8 7 q 8 8 8 8 8 8 8 8 8 6 : - A+r 8 8 8 r J y+k.;.[+[+",
"8 6+[@l+}@=.r 8 R &.8 8 8 8 8 8 8 8 8 8 8 d.E  @f G 8 8 r T N T 8 8 8 8 8 G /+T 8 8 8 8 8 8 8 8 8 6 W.- |@r 8 8 8 8 8 r  ..+`.1@",
"R ^.2@n h 8 8 8 8 G 7 8 8 8 8 8 8 8 8 8 8 d.|  @f 8 8 8 R 3@4@)+8 8 8 8 8 8 U W  .Z 7 8 8 8 8 8 8 6 : - x r 8 8 8 8 8 8 8 r 8 8 ",
"l+3.8 8 8 8 8 8 8 8 8 8 8 8 8 8 8 8 8 8 8 Z f+ @f 8 7 8 8 T 8 8 8 8 8 8 8 8 8 R X 5+6+8 8 8 8 8 8 9 M - K r 8 8 8 8 8 8 8 8 8 8 ",
"5@d.7 8 8 8 8 8 8 8 8 8 8 8 8 8 8 8 8 8 R B+6@# B+T 6 8 8 8 8 8 8 8 8 8 8 8 8 8 7 :@7@y 8 8 8 8 8 6 1.8@A+r 8 8 8 8 8 8 8 8 8 8 ",
"8 8 8 8 8 8 8 8 8 8 8 8 8 8 8 8 8 8 8 r 9@;.& 8.<.( 0@.@q h q q h 8 8 h 8 8 h q 8 8 q .@q h 8 8 h T a@% <@=.8 r 8 8 8 8 8 8 8 8 ",
"x x x x x D D x x x D D x x x D D x x D -+h.^ & & ;+B+A+A+A+A+A+A+A+A+A+A+A+A+A+A+A+A+A+A+A+A+A+A+B+6.8.(.B x x x x D x D D x 3+",
"A.^ B.B.B.t.t.B.b@F.> F.F.. F.> F.F.F.F.g+h++ > + + > - - - - - - - - - = b@& & b@- - - - - - - - > @ + # c@g+g+g+g+g+g+d@d@g+d@",
"^ m.q.q.^ & & e@f@g@W.) 4 W h@i@' O.W.W.W., , , , , , , , , , , , , , ! j@k@& e@l@g@W.W.W.W.W.W.W.W.W.W.W.W.W.W.W.W.W.W.W.W.W.W.",
"m@6@>.E._.n@& ^ o@2+7 9 P.R ].$+8 8 i i i 8 8 8 8 8 8 8 8 8 8 8 8 8 8 g p@q@r@s@T i p q h q q h q q q q h q h q q 5 q q q q q h ",
"Q+[ w 8 f t@t.p.a.u@r 8 8 r 5+T 8 8 8 8 8 8 8 8 8 8 8 8 8 8 8 8 8 8 8 8 o v@. w@r 8 8 @+8 8 8 8 8 8 8 8 8 8 8 8 8 8 8 8 8 8 8 8 ",
"x@6 .@, T 7.8.<@y 6 8 8 8 8 U 3+8 8 8 8 8 8 8 8 8 8 8 8 8 8 8 8 8 8 8 8 8 :   A+8 7 8 8 8 8 8 8 8 8 8 8 8 8 8 8 8 8 8 8 8 8 8 8 ",
"_+8 8 s 8+<.8.A+8 8 8 8 8 8 R D 8 8 8 8 8 8 8 8 8 8 8 8 y r 8 8 8 8 8 8 6 : . K 0 8 8 8 8 8 8 8 8 8 8 8 8 8 8 8 8 8 8 8 N y@U 8 ",
"8 8 8 6 W.z@Y.A+8 8 8 8 8 T [@3.8 8 8 8 8 8 8 8 8 8 7 T A@U r 8 8 8 8 8 6 : ..K r 8 8 8 8 8 8 8 8 8 8 8 8 8 8 8 8 8 8 8 r T #.T ",
"8 8 8 r g B@> A+8 8 8 8 8 8 R C@T q 8 8 8 8 8 8 8 8 G J r 8 8 8 8 8 8 8 8 : ..D@=.0 8 8 r 8 8 8 8 8 8 8 8 8 8 8 8 8 8 8 8 8 U N ",
"8 8 8 8 6 [ > A+8 8 8 8 8 T ^.}@T q 8 8 8 8 8 8 8 8 y L G 8 8 8 8 8 8 8 8 : ..K :@7 8 8 E@y 8 8 8 8 8 8 8 8 8 8 8 8 8 8 8 8 6 }.",
"8 8 8 8 6 | > A+8 8 r /+0.x F@0.G@r 7 8 8 8 8 8 8 Z *.H@6 8 8 8 8 8 8 8 8 : ..K 8 8 8 y X I@8 8 8 8 8 8 8 8 8 8 8 8 8 8 8 8 8 8 ",
"8 8 8 8 6 | > A+8 8 8 y '+J@E.K@>+8 8 8 8 8 8 8 8 7 7 6 7 8 8 8 8 8 8 8 8 : ..D@=.0 7 N L@7@y 8 8 8 8 8 8 8 8 8 8 8 8 8 8 8 8 8 ",
"8 8 8 8 6 [ - A+8 8 8 8 %.x 6.m+x G 8 8 8 8 8 8 8 8 8 8 8 8 8 8 8 8 8 8 8 : F.w. .T y @.M@j+2.r 8 8 8 8 8 8 8 8 8 8 8 8 8 8 8 8 ",
"8 8 8 8 6 [ - A+8 8 8 8 P  .x b.x T 8 8 8 8 8 8 8 8 8 8 8 8 8 8 8 8 8 8 8 : F.6.<@J L R 8 7 r q 8 8 8 8 8 8 8 8 8 8 8 8 8 8 8 8 ",
"8 8 8 8 6 [ - A+8 8 8 8 8 r N@J %.*.r 8 8 8 8 8 8 8 8 8 8 8 8 8 8 8 8 8 6 O@P@8.Q@[.R@G 8 8 8 8 8 8 8 8 8 8 8 8 8 8 8 8 8 8 8 8 ",
"8 8 8 8 q w > f 8 8 8 8 8 }+S@T@:@_+8 h _+_+h _+_+h 6 _+h 6 _+h h _+6 h h C F.& p.[.R@_+8 8 8 8 8 8 8 8 8 8 8 8 8 8 8 8 8 8 8 8 ",
"f x D x D D U@s@(@K K K k.m+ +y+y+A+A+-+V@-+B+V@S B+-+S B+-+-+B+S V@B+S W@y+r.& t.X@x x D D D D D D D D D D D D D D D D D D D D ",
"m.^ & & & * & & t.t.& & ^ Y@^ t.t.& & & t.t.t.& t.& & t.& & t.& t.& & t.& 8.q.& & & * & & & & & & & & & & & & & & & & & & & & & "};
